<svg xmlns="http://www.w3.org/2000/svg" width="1000" height="520" viewBox="0 0 1000 520">
  <rect width="100%" height="100%" fill="#ffffff"/>
  <text x="80" y="34" font-size="26" font-family="Arial" fill="#111827">Layer Update Norms</text>
  <line x1="80" y1="440" x2="920" y2="440" stroke="#9ca3af" stroke-width="2"/>
  <line x1="80" y1="80" x2="80" y2="440" stroke="#9ca3af" stroke-width="2"/>
  <text x="500" y="482" text-anchor="middle" font-size="15" font-family="Arial" fill="#374151">Training step (t)</text>
  <text x="24" y="260" text-anchor="middle" transform="rotate(-90 24 260)" font-size="15" font-family="Arial" fill="#374151">L2 norm of parameter update</text>
  <text x="68" y="445" text-anchor="end" font-size="12" font-family="Arial" fill="#6b7280">0.0019</text>
  <text x="68" y="85" text-anchor="end" font-size="12" font-family="Arial" fill="#6b7280">0.0054</text>
  <path d="M 80.00 80.00 L 108.97 96.03 L 137.93 108.54 L 166.90 118.93 L 195.86 131.47 L 224.83 143.06 L 253.79 153.54 L 282.76 164.68 L 311.72 175.50 L 340.69 185.67 L 369.66 194.92 L 398.62 204.16 L 427.59 214.22 L 456.55 222.02 L 485.52 228.82 L 514.48 238.13 L 543.45 244.29 L 572.41 250.62 L 601.38 257.66 L 630.34 263.46 L 659.31 269.21 L 688.28 275.69 L 717.24 281.39 L 746.21 287.75 L 775.17 293.07 L 804.14 298.61 L 833.10 302.73 L 862.07 307.60 L 891.03 311.87 L 920.00 316.15" fill="none" stroke="#ef4444" stroke-width="2.5"/><path d="M 80.00 250.74 L 108.97 263.85 L 137.93 274.31 L 166.90 284.10 L 195.86 293.74 L 224.83 303.15 L 253.79 311.68 L 282.76 320.29 L 311.72 328.77 L 340.69 337.30 L 369.66 344.58 L 398.62 351.53 L 427.59 359.18 L 456.55 365.78 L 485.52 371.55 L 514.48 377.58 L 543.45 382.60 L 572.41 388.05 L 601.38 393.25 L 630.34 397.80 L 659.31 403.21 L 688.28 407.56 L 717.24 412.47 L 746.21 416.62 L 775.17 421.25 L 804.14 424.97 L 833.10 428.56 L 862.07 433.23 L 891.03 436.24 L 920.00 440.00" fill="none" stroke="#10b981" stroke-width="2.5"/><path d="M 80.00 84.96 L 108.97 97.82 L 137.93 109.90 L 166.90 121.37 L 195.86 132.30 L 224.83 142.67 L 253.79 152.54 L 282.76 161.95 L 311.72 170.92 L 340.69 179.47 L 369.66 187.64 L 398.62 195.46 L 427.59 202.94 L 456.55 210.09 L 485.52 216.95 L 514.48 223.56 L 543.45 229.88 L 572.41 235.97 L 601.38 241.86 L 630.34 247.52 L 659.31 252.99 L 688.28 258.26 L 717.24 263.35 L 746.21 268.26 L 775.17 272.99 L 804.14 277.57 L 833.10 282.00 L 862.07 286.30 L 891.03 290.45 L 920.00 294.49" fill="none" stroke="#3b82f6" stroke-width="2.5"/>
  <text x="92" y="60" font-size="13" fill="#ef4444" font-family="Arial">layer 0</text><text x="212" y="60" font-size="13" fill="#10b981" font-family="Arial">layer 1</text><text x="332" y="60" font-size="13" fill="#3b82f6" font-family="Arial">layer 2</text>
</svg>
