<svg xmlns="http://www.w3.org/2000/svg" width="1000" height="520" viewBox="0 0 1000 520">
  <rect width="100%" height="100%" fill="#ffffff"/>
  <text x="80" y="34" font-size="26" font-family="Arial" fill="#111827">NTK Drift</text>
  <line x1="80" y1="440" x2="920" y2="440" stroke="#9ca3af" stroke-width="2"/>
  <line x1="80" y1="80" x2="80" y2="440" stroke="#9ca3af" stroke-width="2"/>
  <text x="500" y="482" text-anchor="middle" font-size="15" font-family="Arial" fill="#374151">Training step (t)</text>
  <text x="24" y="260" text-anchor="middle" transform="rotate(-90 24 260)" font-size="15" font-family="Arial" fill="#374151">Relative Frobenius drift from t=0</text>
  <text x="80" y="462" font-size="13" font-family="Arial" fill="#374151">t=0</text>
  <text x="875" y="462" font-size="13" font-family="Arial" fill="#374151">t=end</text>
  <text x="68" y="445" text-anchor="end" font-size="12" font-family="Arial" fill="#6b7280">0.0000</text>
  <text x="68" y="85" text-anchor="end" font-size="12" font-family="Arial" fill="#6b7280">0.2914</text>
  <path d="M 80.00 440.00 L 108.00 412.86 L 136.00 395.89 L 164.00 380.08 L 192.00 364.62 L 220.00 342.23 L 248.00 324.10 L 276.00 309.98 L 304.00 291.22 L 332.00 278.40 L 360.00 266.50 L 388.00 254.52 L 416.00 243.27 L 444.00 232.15 L 472.00 222.23 L 500.00 211.74 L 528.00 200.62 L 556.00 190.93 L 584.00 181.54 L 612.00 172.53 L 640.00 163.57 L 668.00 151.80 L 696.00 143.55 L 724.00 135.55 L 752.00 127.79 L 780.00 120.27 L 808.00 111.60 L 836.00 100.66 L 864.00 93.39 L 892.00 86.74 L 920.00 80.00" fill="none" stroke="#7c3aed" stroke-width="3"/>
</svg>
