<svg xmlns="http://www.w3.org/2000/svg" width="1000" height="520" viewBox="0 0 1000 520">
  <rect width="100%" height="100%" fill="#ffffff"/>
  <text x="80" y="34" font-size="26" font-family="Arial" fill="#111827">Representation Drift</text>
  <line x1="80" y1="440" x2="920" y2="440" stroke="#9ca3af" stroke-width="2"/>
  <line x1="80" y1="80" x2="80" y2="440" stroke="#9ca3af" stroke-width="2"/>
  <text x="500" y="482" text-anchor="middle" font-size="15" font-family="Arial" fill="#374151">Training step (t)</text>
  <text x="24" y="260" text-anchor="middle" transform="rotate(-90 24 260)" font-size="15" font-family="Arial" fill="#374151">Relative drift from t=0</text>
  <text x="80" y="462" font-size="13" font-family="Arial" fill="#374151">t=0</text>
  <text x="875" y="462" font-size="13" font-family="Arial" fill="#374151">t=end</text>
  <text x="68" y="445" text-anchor="end" font-size="12" font-family="Arial" fill="#6b7280">0.0000</text>
  <text x="68" y="85" text-anchor="end" font-size="12" font-family="Arial" fill="#6b7280">0.0644</text>
  <path d="M 80.00 440.00 L 108.00 415.78 L 136.00 394.35 L 164.00 374.97 L 192.00 356.82 L 220.00 340.35 L 248.00 325.71 L 276.00 312.15 L 304.00 299.04 L 332.00 286.51 L 360.00 274.17 L 388.00 262.37 L 416.00 251.25 L 444.00 240.53 L 472.00 230.09 L 500.00 219.81 L 528.00 209.76 L 556.00 199.94 L 584.00 189.82 L 612.00 180.04 L 640.00 170.51 L 668.00 160.76 L 696.00 151.04 L 724.00 141.56 L 752.00 132.44 L 780.00 123.53 L 808.00 114.77 L 836.00 106.21 L 864.00 97.80 L 892.00 89.04 L 920.00 80.00" fill="none" stroke="#2563eb" stroke-width="3"/>
</svg>
