<svg xmlns="http://www.w3.org/2000/svg" width="1000" height="520" viewBox="0 0 1000 520">
  <rect width="100%" height="100%" fill="#ffffff"/>
  <text x="80" y="34" font-size="26" font-family="Arial" fill="#111827">Layer Update Norms</text>
  <line x1="80" y1="440" x2="920" y2="440" stroke="#9ca3af" stroke-width="2"/>
  <line x1="80" y1="80" x2="80" y2="440" stroke="#9ca3af" stroke-width="2"/>
  <text x="500" y="482" text-anchor="middle" font-size="15" font-family="Arial" fill="#374151">Training step (t)</text>
  <text x="24" y="260" text-anchor="middle" transform="rotate(-90 24 260)" font-size="15" font-family="Arial" fill="#374151">L2 norm of parameter update</text>
  <text x="68" y="445" text-anchor="end" font-size="12" font-family="Arial" fill="#6b7280">0.0106</text>
  <text x="68" y="85" text-anchor="end" font-size="12" font-family="Arial" fill="#6b7280">0.0234</text>
  <path d="M 80.00 292.89 L 108.97 304.47 L 137.93 319.35 L 166.90 325.87 L 195.86 334.22 L 224.83 342.45 L 253.79 347.61 L 282.76 349.26 L 311.72 353.05 L 340.69 354.62 L 369.66 356.79 L 398.62 355.60 L 427.59 357.77 L 456.55 359.48 L 485.52 360.12 L 514.48 361.38 L 543.45 361.32 L 572.41 362.60 L 601.38 363.01 L 630.34 366.51 L 659.31 369.22 L 688.28 371.79 L 717.24 373.57 L 746.21 374.06 L 775.17 372.59 L 804.14 375.89 L 833.10 378.29 L 862.07 382.59 L 891.03 387.50 L 920.00 391.53" fill="none" stroke="#ef4444" stroke-width="2.5"/><path d="M 80.00 358.61 L 108.97 368.20 L 137.93 383.89 L 166.90 388.61 L 195.86 392.33 L 224.83 397.82 L 253.79 401.98 L 282.76 402.66 L 311.72 404.94 L 340.69 404.38 L 369.66 405.55 L 398.62 406.19 L 427.59 406.88 L 456.55 407.57 L 485.52 407.96 L 514.48 409.20 L 543.45 410.34 L 572.41 412.19 L 601.38 411.87 L 630.34 413.57 L 659.31 416.49 L 688.28 418.70 L 717.24 419.45 L 746.21 419.01 L 775.17 417.06 L 804.14 422.02 L 833.10 425.90 L 862.07 430.07 L 891.03 434.84 L 920.00 440.00" fill="none" stroke="#10b981" stroke-width="2.5"/><path d="M 80.00 80.00 L 108.97 95.50 L 137.93 109.06 L 166.90 120.80 L 195.86 131.30 L 224.83 140.81 L 253.79 149.52 L 282.76 157.62 L 311.72 165.15 L 340.69 172.31 L 369.66 179.17 L 398.62 185.83 L 427.59 192.38 L 456.55 198.88 L 485.52 205.38 L 514.48 211.99 L 543.45 218.75 L 572.41 225.75 L 601.38 232.99 L 630.34 240.55 L 659.31 248.48 L 688.28 256.71 L 717.24 265.22 L 746.21 274.05 L 775.17 283.20 L 804.14 292.60 L 833.10 302.26 L 862.07 312.19 L 891.03 322.36 L 920.00 332.78" fill="none" stroke="#3b82f6" stroke-width="2.5"/>
  <text x="92" y="60" font-size="13" fill="#ef4444" font-family="Arial">layer 0</text><text x="212" y="60" font-size="13" fill="#10b981" font-family="Arial">layer 1</text><text x="332" y="60" font-size="13" fill="#3b82f6" font-family="Arial">layer 2</text>
</svg>
