<svg xmlns="http://www.w3.org/2000/svg" width="1000" height="520" viewBox="0 0 1000 520">
  <rect width="100%" height="100%" fill="#ffffff"/>
  <text x="80" y="34" font-size="26" font-family="Arial" fill="#111827">NTK Drift</text>
  <line x1="80" y1="440" x2="920" y2="440" stroke="#9ca3af" stroke-width="2"/>
  <line x1="80" y1="80" x2="80" y2="440" stroke="#9ca3af" stroke-width="2"/>
  <text x="500" y="482" text-anchor="middle" font-size="15" font-family="Arial" fill="#374151">Training step (t)</text>
  <text x="24" y="260" text-anchor="middle" transform="rotate(-90 24 260)" font-size="15" font-family="Arial" fill="#374151">Relative Frobenius drift from t=0</text>
  <text x="80" y="462" font-size="13" font-family="Arial" fill="#374151">t=0</text>
  <text x="875" y="462" font-size="13" font-family="Arial" fill="#374151">t=end</text>
  <text x="68" y="445" text-anchor="end" font-size="12" font-family="Arial" fill="#6b7280">0.0000</text>
  <text x="68" y="85" text-anchor="end" font-size="12" font-family="Arial" fill="#6b7280">0.6203</text>
  <path d="M 80.00 440.00 L 108.00 430.17 L 136.00 425.38 L 164.00 421.63 L 192.00 418.62 L 220.00 416.05 L 248.00 413.27 L 276.00 411.85 L 304.00 407.98 L 332.00 404.76 L 360.00 400.34 L 388.00 394.32 L 416.00 386.74 L 444.00 377.86 L 472.00 367.54 L 500.00 355.87 L 528.00 339.66 L 556.00 326.09 L 584.00 311.68 L 612.00 296.47 L 640.00 280.48 L 668.00 263.86 L 696.00 246.68 L 724.00 229.16 L 752.00 205.78 L 780.00 186.62 L 808.00 162.19 L 836.00 142.00 L 864.00 121.53 L 892.00 100.84 L 920.00 80.00" fill="none" stroke="#7c3aed" stroke-width="3"/>
</svg>
