<svg xmlns="http://www.w3.org/2000/svg" width="1000" height="520" viewBox="0 0 1000 520">
  <rect width="100%" height="100%" fill="#ffffff"/>
  <text x="80" y="34" font-size="26" font-family="Arial" fill="#111827">Representation Drift</text>
  <line x1="80" y1="440" x2="920" y2="440" stroke="#9ca3af" stroke-width="2"/>
  <line x1="80" y1="80" x2="80" y2="440" stroke="#9ca3af" stroke-width="2"/>
  <text x="500" y="482" text-anchor="middle" font-size="15" font-family="Arial" fill="#374151">Training step (t)</text>
  <text x="24" y="260" text-anchor="middle" transform="rotate(-90 24 260)" font-size="15" font-family="Arial" fill="#374151">Relative drift from t=0</text>
  <text x="80" y="462" font-size="13" font-family="Arial" fill="#374151">t=0</text>
  <text x="875" y="462" font-size="13" font-family="Arial" fill="#374151">t=end</text>
  <text x="68" y="445" text-anchor="end" font-size="12" font-family="Arial" fill="#6b7280">0.0000</text>
  <text x="68" y="85" text-anchor="end" font-size="12" font-family="Arial" fill="#6b7280">0.2745</text>
  <path d="M 80.00 440.00 L 108.00 415.34 L 136.00 392.92 L 164.00 373.03 L 192.00 355.36 L 220.00 339.51 L 248.00 324.39 L 276.00 310.51 L 304.00 297.11 L 332.00 284.63 L 360.00 272.97 L 388.00 261.71 L 416.00 250.70 L 444.00 239.83 L 472.00 229.37 L 500.00 219.07 L 528.00 208.69 L 556.00 198.73 L 584.00 189.07 L 612.00 179.71 L 640.00 171.03 L 668.00 162.59 L 696.00 154.11 L 724.00 145.72 L 752.00 137.47 L 780.00 128.41 L 808.00 119.19 L 836.00 109.68 L 864.00 99.86 L 892.00 90.01 L 920.00 80.00" fill="none" stroke="#2563eb" stroke-width="3"/>
</svg>
