<svg xmlns="http://www.w3.org/2000/svg" width="1000" height="520" viewBox="0 0 1000 520">
  <rect width="100%" height="100%" fill="#ffffff"/>
  <text x="80" y="34" font-size="26" font-family="Arial" fill="#111827">Layer Update Norms</text>
  <line x1="80" y1="440" x2="920" y2="440" stroke="#9ca3af" stroke-width="2"/>
  <line x1="80" y1="80" x2="80" y2="440" stroke="#9ca3af" stroke-width="2"/>
  <text x="500" y="482" text-anchor="middle" font-size="15" font-family="Arial" fill="#374151">Training step (t)</text>
  <text x="24" y="260" text-anchor="middle" transform="rotate(-90 24 260)" font-size="15" font-family="Arial" fill="#374151">L2 norm of parameter update</text>
  <text x="68" y="445" text-anchor="end" font-size="12" font-family="Arial" fill="#6b7280">0.0017</text>
  <text x="68" y="85" text-anchor="end" font-size="12" font-family="Arial" fill="#6b7280">0.0669</text>
  <path d="M 80.00 80.00 L 101.54 111.61 L 123.08 139.70 L 144.62 164.94 L 166.15 187.82 L 187.69 208.72 L 209.23 227.92 L 230.77 245.61 L 252.31 261.98 L 273.85 277.13 L 295.38 291.19 L 316.92 304.22 L 338.46 316.30 L 360.00 327.49 L 381.54 337.86 L 403.08 347.43 L 424.62 356.28 L 446.15 364.43 L 467.69 371.94 L 489.23 378.85 L 510.77 385.18 L 532.31 391.00 L 553.85 396.32 L 575.38 401.19 L 596.92 405.64 L 618.46 409.70 L 640.00 413.40 L 661.54 416.77 L 683.08 419.84 L 704.62 422.63 L 726.15 425.16 L 747.69 427.46 L 769.23 429.55 L 790.77 431.44 L 812.31 433.15 L 833.85 434.70 L 855.38 436.11 L 876.92 437.38 L 898.46 438.53 L 920.00 439.56" fill="none" stroke="#ef4444" stroke-width="2.5"/><path d="M 80.00 115.92 L 101.54 144.67 L 123.08 169.91 L 144.62 192.39 L 166.15 212.65 L 187.69 231.09 L 209.23 248.00 L 230.77 263.60 L 252.31 278.05 L 273.85 291.47 L 295.38 303.96 L 316.92 315.58 L 338.46 326.41 L 360.00 336.47 L 381.54 345.83 L 403.08 354.52 L 424.62 362.57 L 446.15 370.01 L 467.69 376.90 L 489.23 383.25 L 510.77 389.09 L 532.31 394.47 L 553.85 399.41 L 575.38 403.93 L 596.92 408.08 L 618.46 411.87 L 640.00 415.33 L 661.54 418.48 L 683.08 421.36 L 704.62 423.98 L 726.15 426.37 L 747.69 428.54 L 769.23 430.50 L 790.77 432.29 L 812.31 433.91 L 833.85 435.38 L 855.38 436.71 L 876.92 437.92 L 898.46 439.01 L 920.00 440.00" fill="none" stroke="#10b981" stroke-width="2.5"/>
  <text x="92" y="60" font-size="13" fill="#ef4444" font-family="Arial">layer 0</text><text x="212" y="60" font-size="13" fill="#10b981" font-family="Arial">layer 1</text>
</svg>
