<svg xmlns="http://www.w3.org/2000/svg" width="1000" height="500" viewBox="0 0 1000 500">
  <rect width="100%" height="100%" fill="#ffffff"/>
  <text x="60" y="32" font-size="24" font-family="Arial" fill="#111827">Layer Update Norms</text>
  <line x1="60" y1="440" x2="940" y2="440" stroke="#9ca3af" stroke-width="2"/>
  <line x1="60" y1="60" x2="60" y2="440" stroke="#9ca3af" stroke-width="2"/>
  <text x="50" y="445" text-anchor="end" font-size="12" font-family="Arial" fill="#6b7280">0.0017</text>
  <text x="50" y="65" text-anchor="end" font-size="12" font-family="Arial" fill="#6b7280">0.0669</text>
  <path d="M 60.00 60.00 L 82.56 93.36 L 105.13 123.02 L 127.69 149.66 L 150.26 173.81 L 172.82 195.88 L 195.38 216.14 L 217.95 234.82 L 240.51 252.09 L 263.08 268.09 L 285.64 282.92 L 308.21 296.68 L 330.77 309.43 L 353.33 321.24 L 375.90 332.18 L 398.46 342.29 L 421.03 351.63 L 443.59 360.23 L 466.15 368.16 L 488.72 375.45 L 511.28 382.14 L 533.85 388.28 L 556.41 393.89 L 578.97 399.03 L 601.54 403.73 L 624.10 408.02 L 646.67 411.92 L 669.23 415.48 L 691.79 418.72 L 714.36 421.66 L 736.92 424.34 L 759.49 426.76 L 782.05 428.97 L 804.62 430.96 L 827.18 432.77 L 849.74 434.41 L 872.31 435.89 L 894.87 437.23 L 917.44 438.44 L 940.00 439.54" fill="none" stroke="#ef4444" stroke-width="2.5"/><path d="M 60.00 97.92 L 82.56 128.26 L 105.13 154.91 L 127.69 178.64 L 150.26 200.02 L 172.82 219.49 L 195.38 237.34 L 217.95 253.80 L 240.51 269.06 L 263.08 283.22 L 285.64 296.40 L 308.21 308.67 L 330.77 320.10 L 353.33 330.72 L 375.90 340.60 L 398.46 349.77 L 421.03 358.26 L 443.59 366.13 L 466.15 373.39 L 488.72 380.09 L 511.28 386.27 L 533.85 391.94 L 556.41 397.15 L 578.97 401.93 L 601.54 406.30 L 624.10 410.30 L 646.67 413.96 L 669.23 417.29 L 691.79 420.33 L 714.36 423.09 L 736.92 425.61 L 759.49 427.90 L 782.05 429.98 L 804.62 431.86 L 827.18 433.57 L 849.74 435.13 L 872.31 436.53 L 894.87 437.80 L 917.44 438.96 L 940.00 440.00" fill="none" stroke="#10b981" stroke-width="2.5"/>
  <text x="70" y="42" font-size="13" fill="#ef4444" font-family="Arial">layer 0</text><text x="200" y="42" font-size="13" fill="#10b981" font-family="Arial">layer 1</text>
</svg>
